<svg xmlns="http://www.w3.org/2000/svg" xmlns:xlink="http://www.w3.org/1999/xlink" width="1920" zoomAndPan="magnify" viewBox="0 0 1440 809.999993" height="1080" preserveAspectRatio="xMidYMid meet" version="1.0"><defs><filter x="0%" y="0%" width="100%" height="100%" id="7bcffc69c1"><feColorMatrix values="0 0 0 0 1 0 0 0 0 1 0 0 0 0 1 0 0 0 1 0" color-interpolation-filters="sRGB"/></filter><mask id="f8935b5ca0"><g filter="url(#7bcffc69c1)"><rect x="-144" width="1728" fill="#000000" y="-80.999999" height="971.999992" fill-opacity="0.34"/></g></mask><clipPath id="48153ffcc6"><path d="M 0 2.230469 L 1440 2.230469 L 1440 597.730469 L 0 597.730469 Z M 0 2.230469 " clip-rule="nonzero"/></clipPath><clipPath id="482fe78456"><rect x="0" width="1440" y="0" height="600"/></clipPath></defs><g mask="url(#f8935b5ca0)"><g transform="matrix(1, 0, 0, 1, 0, 105)"><g clip-path="url(#482fe78456)"><g clip-path="url(#48153ffcc6)"><path fill="#2c883c" d="M 1396.144531 95.972656 C 1411.132812 84.824219 1425.164062 72.4375 1440.0625 61.242188 L 1440.0625 68.28125 C 1437.28125 70.488281 1434.511719 72.710938 1431.738281 74.925781 C 1386.457031 111.097656 1338.550781 140.074219 1285.238281 162.226562 C 1258.152344 173.476562 1230.023438 183.445312 1202.660156 193.894531 C 1179.09375 202.898438 1155.726562 213.257812 1130.980469 217.828125 C 1113.203125 221.117188 1091.566406 219.472656 1078.121094 205.644531 C 1059.910156 186.917969 1079.964844 167.144531 1071.726562 150.390625 C 1063.53125 133.726562 1023.882812 139.515625 1007.480469 142.109375 C 988.226562 145.15625 968.652344 150.320312 952.230469 161.808594 C 922.414062 182.65625 891.152344 199.082031 855.105469 191.125 C 836.605469 187.042969 820.800781 169.476562 805.011719 158.988281 C 788.675781 148.128906 769.777344 140.878906 750.992188 136.894531 C 731.671875 132.796875 711.039062 131.914062 691.058594 134.992188 C 655.714844 140.441406 621.40625 152.96875 587.054688 163.433594 C 547.539062 175.472656 507.46875 187.769531 467.304688 196.277344 C 432.570312 203.632812 396.28125 208.042969 361.910156 201.761719 C 332.472656 196.386719 308.203125 181.328125 283.847656 164.050781 C 264.066406 150.015625 241.859375 142.710938 217.910156 140.964844 C 193.925781 139.21875 169.109375 141.832031 144.757812 145.132812 C 96.609375 151.664062 48.316406 159.886719 0 166.667969 L 0 160.886719 C 6.023438 160.070312 12.046875 159.238281 18.054688 158.386719 C 46.578125 154.347656 75.140625 150.011719 103.664062 145.820312 C 129.316406 142.050781 155.214844 137.925781 180.789062 136.222656 C 204.15625 134.667969 227.566406 135.210938 250.199219 140.933594 C 272.191406 146.496094 290.042969 162.175781 308.808594 174.734375 C 337.664062 194.046875 374.238281 199.628906 407.613281 198.171875 C 447.136719 196.441406 486.867188 185.851562 525.582031 175.183594 C 563.320312 164.78125 600.855469 152.863281 638.425781 141.863281 C 669.246094 132.835938 699.011719 127.003906 730.820312 129.992188 C 765.449219 133.246094 799.058594 147.578125 827.542969 167.589844 C 844.582031 179.558594 861.660156 188.273438 882.726562 186.167969 C 901.382812 184.304688 918.667969 178.433594 934.703125 167.703125 C 947.960938 158.828125 959.671875 150.464844 974.570312 145.207031 C 995.59375 137.78125 1019.402344 135.359375 1041.375 135.800781 C 1052.269531 136.019531 1082.984375 136.921875 1078.914062 156.140625 C 1074.664062 176.203125 1069.128906 201.171875 1093.804688 209.664062 C 1114.871094 216.914062 1135.3125 212.152344 1156.332031 204.949219 C 1213.007812 185.523438 1271.863281 166.007812 1326.105469 138.875 C 1350.667969 126.59375 1374.097656 112.363281 1396.144531 95.972656 Z M 1332.957031 120.179688 C 1278.597656 150.160156 1218.019531 167.910156 1158.996094 184.953125 C 1138.867188 190.765625 1115.445312 197.230469 1094.996094 189.242188 C 1071.6875 180.136719 1089.8125 155.414062 1093.566406 140.554688 C 1098.421875 121.339844 1061.011719 120.777344 1051.085938 120.644531 C 1025.890625 120.316406 999.109375 123.378906 974.5625 130.34375 C 944.609375 138.839844 918.378906 161.988281 887.578125 164.320312 C 865.429688 166 843.257812 156.6875 822.464844 148.449219 C 786.445312 134.179688 748.734375 119.277344 710.292969 115.6875 C 681.320312 112.984375 654.378906 117.75 626.273438 126.433594 C 592.773438 136.78125 559.164062 147.257812 525.355469 156.078125 C 486.613281 166.179688 446.503906 175.40625 407.019531 177.101562 C 375.582031 178.453125 340.570312 174.414062 313.375 156.125 C 295.007812 143.773438 278.652344 129.957031 257.863281 124.070312 C 235.464844 117.730469 210.742188 117.292969 186.808594 118.476562 C 160.441406 119.777344 133.703125 123.441406 107.21875 126.773438 C 77.914062 130.464844 48.601562 134.339844 19.316406 138.125 C 12.882812 138.957031 6.441406 139.773438 0 140.582031 L 0 145.875 C 49.917969 139.367188 99.875 131.996094 149.699219 126.328125 C 174.816406 123.472656 200.398438 121.273438 225.078125 123.328125 C 248.007812 125.238281 271.261719 131.523438 290.316406 146 C 312.089844 162.546875 333.691406 174.90625 360.375 180.121094 C 395.058594 186.898438 432.988281 181.222656 467.613281 174.582031 C 506.042969 167.210938 544.457031 156.660156 582.066406 145.34375 C 612.308594 136.242188 642.488281 124.753906 673.558594 119.910156 C 692.714844 116.921875 712.300781 118.417969 731.273438 121.800781 C 752.6875 125.621094 773.953125 132.90625 794.355469 141.027344 C 817.199219 150.121094 840.59375 163.355469 864.1875 167.746094 C 898.308594 174.09375 918.375 160.320312 948.109375 145.007812 C 968.378906 134.570312 990.925781 129.898438 1013.074219 126.875 C 1031.570312 124.347656 1076.453125 117.535156 1086.296875 134.800781 C 1094.40625 149.027344 1068.308594 168.019531 1080.558594 185.148438 C 1090.859375 199.550781 1115.617188 199.640625 1131.546875 196.738281 C 1157.558594 192.003906 1182.902344 182.617188 1208.261719 174.394531 C 1236.980469 165.082031 1265.808594 155.328125 1293.34375 143.554688 C 1319.601562 132.328125 1345.308594 119.042969 1369.210938 102.875 C 1391.234375 87.976562 1410.734375 68.679688 1432.011719 54.234375 C 1434.625 52.460938 1437.3125 50.761719 1440.0625 49.132812 L 1440.0625 44.839844 C 1424.925781 53.328125 1411.480469 64.238281 1397.757812 75.613281 C 1377.488281 92.417969 1356.019531 107.460938 1332.957031 120.179688 Z M 1155.636719 225.566406 C 1134.671875 232.75 1114.226562 237.546875 1093.265625 230.292969 C 1071.753906 222.847656 1066.707031 192.703125 1066.933594 172.835938 C 1067.148438 154.421875 1045.800781 151.003906 1031.859375 150.992188 C 1012.664062 150.972656 992.3125 153.113281 974.433594 161.28125 C 959.324219 168.183594 947.304688 180.15625 932.996094 188.53125 C 912.589844 200.472656 889.765625 208.832031 867.535156 210.707031 C 847.253906 212.421875 831.605469 207.234375 818.707031 190.464844 C 811.453125 181.039062 805.824219 170.167969 795.765625 162.875 C 781.578125 152.582031 763.402344 147.789062 746.914062 145.707031 C 713.152344 141.445312 679.550781 149.378906 646.199219 159.171875 C 605.3125 171.171875 564.492188 184.640625 523.648438 196.882812 C 486.339844 208.0625 447.894531 219.3125 409.601562 220.878906 C 375.113281 222.289062 338.628906 214.09375 308.613281 195.367188 C 287.734375 182.339844 267.71875 164.582031 243.742188 158.433594 C 221.417969 152.707031 198.394531 152.320312 175.371094 154.285156 C 150.617188 156.398438 125.558594 161.015625 100.75 165.203125 C 72.941406 169.902344 45.054688 174.59375 17.167969 178.847656 C 11.453125 179.71875 5.730469 180.554688 0 181.363281 L 0 187.671875 C 47.035156 180.808594 93.949219 171.835938 140.707031 164.40625 C 164.367188 160.648438 188.480469 157.621094 211.835938 159.175781 C 236.980469 160.851562 259.644531 169.480469 280.738281 183.871094 C 307.1875 201.914062 334.714844 218.710938 365.890625 224.921875 C 398.800781 231.476562 433.253906 227.460938 466.464844 219.90625 C 506.679688 210.757812 546.597656 197.117188 586.269531 184.5 C 624.863281 172.21875 663.578125 157.84375 703.808594 151.785156 C 724.183594 148.714844 745.195312 148.71875 764.054688 154.058594 C 779.359375 158.394531 792.523438 166.082031 801.339844 180.75 C 809.929688 195.035156 819.121094 213.332031 836.238281 217.152344 C 875.054688 225.816406 922.929688 205.757812 953.683594 181.382812 C 968.292969 169.804688 984.125 161.84375 1002.375 158.054688 C 1017.335938 154.945312 1051.257812 150.214844 1058.988281 166.800781 C 1067.511719 185.078125 1061.15625 209.027344 1077.492188 226.625 C 1090.746094 240.90625 1112.695312 242.195312 1130.414062 238.921875 C 1155.078125 234.363281 1178.441406 224.429688 1201.910156 214.929688 C 1228.011719 204.367188 1253.816406 192.9375 1279.570312 181.664062 C 1333.257812 158.160156 1384.324219 131.257812 1431.027344 95.929688 C 1434.039062 93.648438 1437.050781 91.347656 1440.0625 89.035156 L 1440.0625 81.023438 C 1401.828125 109.8125 1363.511719 136.757812 1319.667969 157.710938 C 1266.488281 183.121094 1210.816406 206.652344 1155.636719 225.566406 Z M 1092.730469 250.921875 C 1072.246094 243.496094 1065.515625 210.773438 1059.902344 191.613281 C 1054.867188 174.429688 1040.558594 167.164062 1023.671875 167.222656 C 1006.574219 167.28125 988.78125 170.226562 973.769531 179.640625 C 933.046875 205.179688 893.679688 232.335938 846.488281 236.832031 C 829.949219 238.40625 806.019531 235.71875 799.636719 216.121094 C 790.964844 189.46875 786.40625 169.398438 755.027344 163.988281 C 719.71875 157.902344 681.730469 168.914062 646.144531 179.484375 C 603.691406 192.09375 561.492188 206.96875 519.285156 220.546875 C 484.246094 231.816406 448.09375 243.289062 411.980469 244.625 C 377.695312 245.890625 343.128906 235.441406 312.910156 217.484375 C 289.21875 203.410156 266.042969 184.320312 239.691406 177.203125 C 217.453125 171.195312 194.5 170.800781 171.457031 173.144531 C 147.425781 175.585938 123.105469 180.703125 99.054688 185.230469 C 71.699219 190.378906 44.199219 195.316406 16.667969 199.535156 C 11.121094 200.382812 5.5625 201.191406 0 201.96875 L 0 208.664062 C 46.328125 201.847656 92.4375 192.851562 138.355469 184.574219 C 161.527344 180.398438 184.730469 177.347656 208 178.570312 C 235.078125 179.988281 259.980469 191.324219 282.675781 205.773438 C 310.511719 223.488281 339.226562 241.941406 371.074219 248.984375 C 401.832031 255.785156 433.925781 252.230469 464.980469 244.714844 C 503.648438 235.355469 541.910156 221.15625 580.007812 208.277344 C 622.105469 194.042969 664.710938 178.210938 707.972656 171.527344 C 726.191406 168.710938 747.859375 166.605469 765.113281 174.648438 C 777.410156 180.386719 783.152344 193.167969 785.3125 205.878906 C 788.019531 221.828125 793.160156 240.25 811.960938 244.636719 C 856.460938 255.019531 912.363281 226.457031 948.582031 203.6875 C 964.871094 193.449219 980.003906 181.15625 998.253906 175.808594 C 1013.757812 171.265625 1040.3125 168.5625 1050.15625 185.054688 C 1055.472656 193.964844 1058.269531 205.160156 1061.449219 216.15625 C 1060.851562 214.761719 1060.214844 213.414062 1059.523438 212.136719 C 1051.203125 196.734375 1036.332031 185.0625 1017.894531 185.503906 C 1000.648438 185.921875 986.914062 191.703125 971.65625 200.539062 C 925.226562 227.421875 876.019531 257.8125 823.3125 263.527344 C 806.878906 265.3125 779.398438 265.386719 774.925781 243.308594 C 769.863281 218.316406 777.601562 194.265625 748.804688 186.050781 C 715.140625 176.449219 671.765625 192.160156 637.597656 202.820312 C 596.019531 215.789062 554.785156 231.199219 513.554688 245.355469 C 481.296875 256.425781 447.9375 267.726562 414.589844 268.730469 C 381.011719 269.746094 349.21875 257.53125 319.847656 240.546875 C 294.144531 225.683594 268.425781 205.957031 239.902344 197.960938 C 217.0625 191.5625 193.800781 190.6875 170.136719 193.320312 C 146.480469 195.953125 122.46875 201.421875 98.78125 205.945312 C 71.367188 211.179688 43.652344 216.003906 16.050781 220.148438 C 10.714844 220.949219 5.359375 221.71875 0 222.464844 L 0 229.75 C 46.40625 223.074219 92.621094 214.441406 138.605469 205.925781 C 161.832031 201.628906 184.949219 198.417969 208.226562 199.84375 C 236.949219 201.605469 263.921875 213.882812 288.390625 228.851562 C 316.453125 246.019531 345.191406 265.710938 376.691406 273.296875 C 405.03125 280.125 434.746094 277.152344 463.382812 269.898438 C 499.453125 260.761719 535.097656 246.492188 570.585938 233.75 C 612.742188 218.617188 655.550781 202.03125 698.980469 194.996094 C 715.574219 192.308594 738.109375 189 752.484375 198.925781 C 762.949219 206.152344 762.515625 221.488281 762.148438 233.042969 C 761.539062 252.382812 767.132812 267.242188 786.6875 272.390625 C 833.144531 284.617188 895.4375 251.179688 937.703125 227.554688 C 956.679688 216.945312 975.667969 203.402344 996.355469 196.167969 C 1013.945312 190.019531 1035.277344 190.507812 1048.015625 205.558594 C 1055.875 214.847656 1058.441406 227.078125 1061.449219 239.050781 C 1060.660156 236.910156 1059.804688 234.855469 1058.847656 232.933594 C 1050.816406 216.84375 1036.285156 205.882812 1016.742188 205.851562 C 997.886719 205.820312 980.921875 214.410156 964.734375 222.84375 C 913.792969 249.386719 859.457031 284.183594 801.765625 289.785156 C 785.238281 291.390625 754.195312 292.546875 749.121094 270.800781 C 744.554688 251.238281 760.554688 218.964844 733.214844 210.941406 C 699.300781 200.988281 656.867188 217.460938 624.621094 228.035156 C 585.332031 240.914062 546.441406 256.335938 507.554688 270.476562 C 478.476562 281.050781 448.4375 291.609375 417.222656 292.53125 C 384.914062 293.488281 355.03125 280.144531 327.996094 264.027344 C 301.28125 248.097656 273.941406 228.476562 244.148438 220.078125 C 220.578125 213.433594 196.664062 212.179688 172.246094 214.78125 C 148.335938 217.328125 124.023438 222.757812 100.058594 227.144531 C 72.199219 232.25 44.019531 236.894531 15.964844 240.925781 C 10.65625 241.6875 5.332031 242.425781 0 243.140625 L 0 250.96875 C 47.242188 244.5 94.328125 236.308594 141.171875 228.023438 C 164.902344 223.824219 188.460938 220.738281 212.191406 222.375 C 242.125 224.4375 270.550781 237.203125 296.207031 252.582031 C 323.226562 268.78125 351.175781 289.917969 381.921875 297.21875 C 408.722656 303.578125 435.53125 301.542969 462.160156 294.65625 C 495.078125 286.140625 527.566406 272.25 559.867188 259.957031 C 600.285156 244.574219 641.425781 227.960938 683.234375 220.855469 C 697.914062 218.359375 721.160156 214.488281 732.4375 225.492188 C 740.949219 233.800781 737.683594 249.582031 736.335938 260.976562 C 733.917969 281.355469 744.273438 295.863281 764.859375 299.214844 C 818.617188 307.960938 877.789062 276.015625 923.625 252.285156 C 946.339844 240.523438 968.929688 226.171875 993.371094 217.914062 C 1011.511719 211.78125 1034.09375 210.148438 1047.074219 226.625 C 1054.351562 235.859375 1056.78125 247.855469 1059.671875 259.582031 C 1058.984375 257.640625 1058.257812 255.746094 1057.460938 253.925781 C 1049.898438 236.613281 1032.957031 226.582031 1014.273438 226.957031 C 992.96875 227.382812 973.191406 236.953125 954.542969 246.035156 C 901.257812 271.976562 845.132812 308.773438 785.640625 314.578125 C 767.480469 316.351562 736.109375 317.296875 726.738281 297.367188 C 718.554688 279.953125 736.433594 246.054688 712.433594 237.484375 C 681.515625 226.445312 639.175781 243.960938 609.582031 254.152344 C 573.570312 266.558594 537.957031 281.585938 502.332031 295.101562 C 475.515625 305.273438 448.335938 314.179688 419.628906 315.359375 C 389.378906 316.597656 360.960938 302.984375 335.886719 287.394531 C 309.289062 270.859375 281.128906 251.332031 250.730469 242.917969 C 226.515625 236.21875 201.589844 234.214844 176.453125 236.894531 C 151.722656 239.53125 126.992188 244.507812 102.402344 248.679688 C 73.816406 253.53125 44.914062 257.914062 16.148438 261.785156 C 10.773438 262.511719 5.390625 263.210938 0 263.894531 L 0 272.230469 C 48.519531 266.011719 96.933594 258.371094 145.097656 250.539062 C 169.566406 246.5625 193.84375 243.679688 218.238281 245.550781 C 248.878906 247.898438 278.207031 260.710938 304.472656 276.457031 C 330.222656 291.890625 356.53125 313.074219 385.882812 320.097656 C 411.132812 326.140625 436.683594 324.59375 461.761719 318.1875 C 491.472656 310.59375 520.675781 297.582031 549.660156 285.945312 C 587.058594 270.925781 625.25 254.664062 663.976562 247.96875 C 676.523438 245.800781 699.871094 241.695312 708.9375 253.144531 C 716.085938 262.175781 712.363281 277.0625 712.289062 288.417969 C 712.136719 311.570312 731.878906 320.6875 750.949219 323.898438 C 803.722656 332.785156 861.773438 300.890625 908.960938 277.171875 C 934.414062 264.378906 959.941406 249.289062 987.195312 240.515625 C 1005.570312 234.605469 1031.273438 230.226562 1044.925781 248.015625 C 1051.492188 256.574219 1054.234375 267.210938 1057.019531 277.78125 C 1056.625 276.835938 1056.222656 275.902344 1055.800781 274.992188 C 1047.449219 256.964844 1029.253906 247.761719 1009.847656 248.589844 C 986.222656 249.59375 964.050781 259.757812 943.082031 269.570312 C 891.019531 293.929688 836.6875 331.316406 778.816406 336.917969 C 757.265625 339.003906 728.960938 338.308594 712.269531 321.773438 C 696.921875 306.570312 711.621094 273.679688 690.003906 264.5625 C 662.21875 252.847656 621.175781 270.6875 594.8125 280.210938 C 562.632812 291.835938 530.789062 306.132812 498.890625 318.40625 C 473.730469 328.089844 448.300781 335.566406 421.351562 336.660156 C 392.644531 337.824219 365.5625 325.464844 342.019531 310.136719 C 315.703125 293 287.929688 274.867188 258.277344 266.058594 C 233.722656 258.765625 207.601562 257.167969 181.730469 259.34375 C 156.363281 261.472656 130.59375 266.4375 105.152344 270.339844 C 75.6875 274.863281 45.960938 278.957031 16.347656 282.652344 C 10.90625 283.332031 5.453125 283.992188 0 284.640625 L 0 293.460938 C 49.933594 287.460938 99.8125 280.417969 149.457031 273.191406 C 174.769531 269.507812 199.902344 266.875 225.074219 268.972656 C 255.78125 271.527344 285.402344 283.929688 311.550781 299.957031 C 335.632812 314.71875 359.726562 334.523438 387.1875 342.136719 C 412.335938 349.109375 437.058594 346.933594 462.136719 340.175781 C 489.175781 332.894531 515.566406 321.71875 541.753906 310.757812 C 575.316406 296.707031 609.53125 281.390625 644.402344 275.226562 C 656.164062 273.144531 677.429688 269.65625 685.890625 280.679688 C 692.539062 289.339844 691.488281 303.941406 694.375 314.113281 C 699.976562 333.847656 728.730469 344.003906 747.707031 346.382812 C 799.722656 352.90625 850.335938 324.691406 896.335938 301.511719 C 923.515625 287.8125 950.753906 273.039062 979.433594 263.550781 C 998.542969 257.230469 1027.058594 251.207031 1042.179688 269.566406 C 1048.789062 277.59375 1051.992188 287.507812 1055.035156 297.480469 C 1054.796875 296.988281 1054.558594 296.492188 1054.308594 296.011719 C 1044.734375 277.292969 1024.820312 269.191406 1004.574219 270.453125 C 979.125 272.035156 955.035156 282.394531 932.386719 292.894531 C 882.789062 315.886719 831.207031 353.535156 776.925781 360.246094 C 751.898438 363.339844 729.671875 358.175781 708.847656 343.488281 C 698.488281 336.183594 691.625 327.613281 686.628906 315.859375 C 682.472656 306.085938 679.851562 295.574219 669.433594 291.070312 C 643.632812 279.929688 606.972656 296.058594 582.582031 305.242188 C 554.242188 315.917969 526.0625 328.355469 497.878906 339.960938 C 472.585938 350.378906 447.546875 360.925781 420.390625 362.652344 C 392.164062 364.445312 367.039062 346.972656 344.859375 331.726562 C 320.214844 314.789062 293.765625 297.5 265.433594 289.082031 C 240.335938 281.621094 213.550781 279.925781 187.0625 281.804688 C 160.773438 283.671875 134.046875 288.300781 107.660156 291.925781 C 77.328125 296.09375 46.773438 299.894531 16.320312 303.449219 C 10.882812 304.085938 5.441406 304.707031 0 305.324219 L 0 314.601562 C 51.183594 308.734375 102.351562 302.273438 153.339844 295.695312 C 179.390625 292.332031 205.523438 289.917969 231.402344 292.238281 C 261.441406 294.929688 290.542969 306.40625 315.8125 322.582031 C 338.765625 337.28125 360.460938 361.738281 386.042969 370.875 C 411.214844 379.859375 436.070312 376.523438 460.933594 367.523438 C 486.789062 358.167969 512.078125 344.464844 537.890625 333.445312 C 567.324219 320.886719 597.101562 306.921875 627.667969 301.5 C 639.515625 299.398438 657.710938 297.046875 667.15625 306.898438 C 675.222656 315.304688 679.234375 328.140625 686.957031 336.8125 C 701.613281 353.277344 722.246094 368.746094 745.042969 371.863281 C 795.976562 378.835938 843.882812 347.976562 888.410156 324.578125 C 915.46875 310.363281 942.890625 295.957031 971.714844 286.574219 C 991.980469 279.972656 1022.539062 272.648438 1039.492188 291.101562 C 1046.011719 298.203125 1049.71875 306.988281 1052.972656 316.023438 C 1042.125 297.644531 1019.554688 290.441406 999.585938 292.238281 C 973.414062 294.589844 948.449219 304.257812 924.535156 315.453125 C 875.605469 338.363281 827.257812 378.574219 773.734375 386.371094 C 748.449219 390.050781 725.894531 384.84375 706.550781 367.9375 C 689.550781 353.074219 676.503906 324.578125 654.195312 315.90625 C 629.59375 306.339844 598.128906 319.390625 575.125 328.289062 C 548.015625 338.773438 522.140625 352.210938 496.398438 366.019531 C 471.722656 379.253906 446.679688 392.433594 418.761719 394.898438 C 388.964844 397.53125 364.433594 375.328125 344.289062 355.886719 C 323.066406 335.402344 298.4375 319.753906 270.859375 311.5625 C 245.488281 304.023438 218.261719 302.382812 191.4375 303.972656 C 164.242188 305.582031 136.597656 309.863281 109.28125 313.234375 C 78.21875 317.070312 46.992188 320.621094 15.835938 324.105469 C 10.558594 324.695312 5.28125 325.277344 0 325.859375 L 0 335.773438 C 51.875 329.113281 104 323.695312 155.84375 317.769531 C 182.574219 314.710938 209.433594 312.519531 235.953125 314.949219 C 264.066406 317.523438 294.570312 327.078125 315.875 344.511719 C 337.878906 362.515625 356.816406 394.820312 384.382812 405.71875 C 409.554688 415.671875 434.53125 411.15625 458.972656 400.527344 C 485.527344 388.984375 510.929688 371.847656 536.695312 357.542969 C 562.226562 343.367188 588.460938 331.167969 616.894531 325.6875 C 629.53125 323.25 645.140625 323.023438 656.539062 330.609375 C 668.375 338.484375 676.734375 349.09375 684.839844 360.433594 C 698.15625 379.0625 717.667969 396.953125 741.179688 399.925781 C 793.90625 406.589844 842.464844 372.039062 886.601562 346.378906 C 911.859375 331.691406 938.070312 318.089844 965.703125 309.132812 C 987.058594 302.214844 1019.101562 294.4375 1037.5625 312.433594 C 1043.300781 318.03125 1047.285156 325.214844 1050.410156 332.722656 C 1037.832031 316.761719 1015.070312 311.769531 996.050781 313.628906 C 970.027344 316.171875 945.398438 325.3125 921.566406 336.691406 C 870.441406 361.101562 824.8125 404.257812 769.8125 414.070312 C 744.78125 418.535156 721.367188 413.390625 702.921875 395.34375 C 685.148438 377.953125 675.03125 344.117188 647.863281 337.945312 C 621.957031 332.058594 596.988281 339.253906 573.199219 350.417969 C 545.832031 363.257812 519.960938 380.933594 494.085938 397.242188 C 470.582031 412.050781 445.082031 427.964844 416.773438 430.675781 C 385.601562 433.65625 361.355469 409.355469 343.125 387.65625 C 323.273438 364.023438 303.585938 341.550781 273.214844 333.085938 C 247.394531 325.894531 220.625 324.183594 193.863281 325.53125 C 165.902344 326.941406 137.515625 330.84375 109.390625 334.074219 C 77.960938 337.683594 46.714844 342.847656 15.746094 348.9375 C 10.773438 349.917969 5.394531 350.734375 0 351.554688 L 0 380.628906 C 43.550781 372.617188 106.101562 346.3125 156.160156 339.554688 C 183.023438 335.925781 210.472656 334.296875 237.378906 336.558594 C 267.957031 339.128906 294.339844 351.546875 314.570312 373.960938 C 334.863281 396.441406 353.6875 431.921875 382.46875 443.582031 C 407.339844 453.660156 432.6875 448.035156 456.628906 436.441406 C 483.621094 423.375 508.871094 404.152344 534.414062 387.257812 C 559.527344 370.648438 585.09375 354.277344 614.152344 347.933594 C 626.839844 345.164062 643.007812 345.382812 654.351562 353.15625 C 666.605469 361.550781 673.632812 375.417969 681.203125 387.800781 C 693.394531 407.742188 712.785156 426.425781 736.789062 429.125 C 791.078125 435.222656 840.59375 397.910156 884.910156 369.992188 C 909.792969 354.316406 935.21875 339.976562 963.085938 330.777344 C 985.742188 323.300781 1017.480469 316.636719 1037.125 333.359375 C 1042.894531 338.273438 1046.523438 345.023438 1049.332031 352.203125 C 1036.773438 336.75 1013.859375 332.453125 995.171875 334.304688 C 968.726562 336.921875 944.019531 346.03125 920.320312 358.390625 C 869.730469 384.773438 822.984375 432.257812 765.726562 442.117188 C 740.144531 446.523438 716.90625 442.472656 698.648438 424.203125 C 680.976562 406.519531 672.53125 368.949219 645.964844 361.414062 C 619.597656 353.9375 594.25 364.183594 570.773438 377.484375 C 543.355469 393.015625 517.507812 413.136719 491.339844 431.21875 C 468.394531 447.070312 443.125 463.804688 414.710938 467.230469 C 383.25 471.023438 358.945312 446.539062 341.675781 424.074219 C 322.734375 399.429688 302.488281 368.40625 272.308594 357.007812 C 247.097656 347.480469 220.347656 345.820312 193.730469 348.269531 C 165.65625 350.855469 137.667969 358.058594 110.234375 366.050781 C 79.601562 374.972656 49.304688 385.640625 19.136719 396.328125 C 13.226562 398.421875 6.554688 400.28125 0 402.152344 L 0 443.023438 C 43.269531 430.21875 105.441406 389.898438 156.835938 374.226562 C 182.921875 366.269531 209.699219 361.589844 236.648438 364.304688 C 268.054688 367.46875 293.816406 386.214844 313.113281 410.371094 C 332.136719 434.191406 351.148438 470.546875 380.574219 481.367188 C 405.496094 490.53125 430.785156 484.375 454.28125 472.511719 C 481.421875 458.8125 506.398438 438.640625 531.496094 420.242188 C 555.949219 402.316406 581.582031 381.839844 611.671875 374.46875 C 624.527344 371.324219 640.332031 371.574219 651.21875 379.964844 C 662.941406 388.992188 669.464844 405.039062 676.75 417.234375 C 688.773438 437.351562 707.605469 455.171875 732.550781 458.003906 C 787.59375 464.25 839.410156 423.851562 882.503906 395.144531 C 907.929688 378.207031 933.824219 362.085938 962.566406 352.035156 C 984.515625 344.359375 1017.578125 336.972656 1036.503906 354.1875 C 1041.75 358.964844 1045.171875 365.210938 1047.832031 371.882812 C 1035.121094 357.195312 1012.941406 352.941406 994.5625 354.945312 C 967.476562 357.902344 942.261719 368.265625 918.351562 381.648438 C 867.601562 410.054688 820.457031 458.789062 762.058594 469.269531 C 736.71875 473.816406 713.011719 470.628906 694.410156 452.996094 C 676.265625 435.792969 668.648438 396.839844 642.746094 388.808594 C 616.144531 380.5625 590.570312 393.40625 567.527344 408.070312 C 540.429688 425.316406 514.863281 446.757812 488.5625 465.53125 C 465.996094 481.636719 441.039062 497.90625 412.871094 501.8125 C 381.867188 506.109375 357.378906 484.378906 340.132812 462.054688 C 321.058594 437.355469 301.066406 404.144531 271.558594 391.117188 C 246.640625 380.117188 220.382812 378.753906 194.113281 384.246094 C 166.183594 390.085938 139.390625 402.695312 113.128906 415.425781 C 83.472656 429.804688 54.289062 445.722656 24.910156 460.535156 C 17.300781 464.371094 8.316406 467.828125 0 471.324219 L 0 519.414062 C 43.230469 505.222656 106.257812 449.25 158.941406 423.207031 C 183.605469 411.011719 209.332031 402.277344 236.566406 403.6875 C 267.5 405.285156 292.800781 426.421875 311.597656 450.054688 C 330.058594 473.269531 349.519531 507.207031 378.960938 515.953125 C 403.929688 523.371094 429.078125 517.367188 452.300781 505.972656 C 479.3125 492.714844 503.984375 472.832031 528.414062 454.105469 C 552.804688 435.40625 578.050781 413.246094 608.195312 404.511719 C 620.785156 400.863281 636.546875 400.816406 647.132812 409.550781 C 658.492188 418.921875 664.773438 434.625 672.171875 447.027344 C 684.257812 467.289062 704.996094 482.894531 729.136719 485.09375 C 785.039062 490.1875 836.304688 450.945312 879.785156 420.984375 C 905.722656 403.109375 931.941406 385.703125 961.328125 374.578125 C 983.179688 366.304688 1016.488281 358.042969 1035.535156 375.5625 C 1040.320312 379.964844 1043.558594 385.601562 1046.097656 391.65625 C 1033.152344 377.738281 1011.429688 374.199219 993.484375 376.511719 C 965.773438 380.082031 940 391.5 915.964844 405.804688 C 866.222656 435.40625 817.988281 484 759.390625 494.273438 C 734.371094 498.65625 710.332031 496.3125 690.886719 480.195312 C 671.808594 464.375 664.003906 428.023438 638.8125 418.367188 C 613.367188 408.609375 584.136719 426.378906 563.964844 440.089844 C 537.5625 458.03125 512.40625 479.566406 486.140625 497.746094 C 463.222656 513.609375 439.210938 527.09375 411.539062 531.652344 C 382.101562 536.5 356.78125 519.730469 338.6875 498.5 C 319.398438 475.863281 299.304688 443.429688 270.984375 431.476562 C 246.023438 420.9375 220.476562 421.75 195.355469 430.613281 C 167.625 440.398438 142.230469 458.074219 117.226562 475.019531 C 88.804688 494.277344 60.753906 514.652344 31.816406 532.6875 C 22.152344 538.710938 10.003906 544.035156 0 549.421875 L 0 597.726562 C 44.886719 586.179688 108.644531 516.117188 161.8125 479.707031 C 184.808594 463.960938 209.3125 450.832031 236.855469 449.488281 C 266.171875 448.054688 291.238281 467.910156 310.117188 489.269531 C 328.585938 510.160156 348.890625 538.742188 377.878906 544.214844 C 403.101562 548.976562 427.875 544.113281 451.046875 534.046875 C 477.683594 522.472656 502.046875 504.28125 525.65625 486.433594 C 549.976562 468.050781 574.6875 445.597656 604.3125 436.011719 C 616.613281 432.03125 632.269531 431.160156 642.746094 440.0625 C 653.9375 449.566406 659.945312 464.105469 668.152344 475.464844 C 682.417969 495.207031 702.90625 506.386719 727.238281 508.921875 C 781.886719 514.617188 833.273438 477.203125 877.144531 446.640625 C 903.53125 428.257812 930.007812 410.011719 959.699219 397.957031 C 981.414062 389.136719 1015.066406 379.730469 1034.410156 397.28125 C 1043.679688 405.691406 1047.15625 418.757812 1051 430.542969 C 1054.390625 440.929688 1059.339844 451.285156 1067.507812 458.722656 C 1082.582031 472.457031 1104.972656 474.289062 1124.183594 471.550781 C 1148.578125 468.078125 1172.15625 460.007812 1195.683594 452.09375 C 1221.953125 443.253906 1247.933594 433.195312 1272.683594 421.171875 C 1325.71875 395.410156 1373.832031 359.695312 1422.972656 326.871094 C 1428.6875 323.050781 1434.386719 319.160156 1440.0625 315.230469 L 1440.0625 300.925781 C 1396.664062 331.453125 1351.960938 361.113281 1306.289062 387.882812 C 1256.386719 417.136719 1203.203125 437.734375 1147.96875 454.234375 C 1127.511719 460.347656 1107.441406 463.964844 1087.335938 457.265625 C 1076.625 453.695312 1070.425781 445.132812 1065.839844 435.101562 C 1066.640625 435.976562 1067.464844 436.828125 1068.335938 437.640625 C 1083.113281 451.414062 1105.765625 453.332031 1124.75 450.585938 C 1149.261719 447.039062 1172.796875 438.519531 1196.25 430.015625 C 1222.519531 420.488281 1248.425781 409.59375 1273.191406 396.996094 C 1324.875 370.707031 1375.078125 338.128906 1423.480469 305.804688 C 1429.023438 302.101562 1434.554688 298.328125 1440.0625 294.515625 L 1440.0625 280.792969 C 1350.007812 343.785156 1253.742188 400.394531 1148.667969 433.367188 C 1128.167969 439.796875 1107.644531 443.609375 1087.875 436.632812 C 1076.542969 432.632812 1070.410156 423.4375 1065.886719 412.828125 C 1066.9375 414.078125 1068.042969 415.28125 1069.234375 416.417969 C 1083.816406 430.347656 1106.425781 432.273438 1125.316406 429.378906 C 1149.929688 425.605469 1173.410156 416.585938 1196.816406 407.558594 C 1223.027344 397.453125 1248.824219 385.96875 1273.699219 373.140625 C 1325 346.6875 1375.875 316.875 1423.988281 284.738281 C 1429.363281 281.148438 1434.722656 277.492188 1440.0625 273.800781 L 1440.0625 260.65625 C 1350.464844 323.015625 1253.050781 378.03125 1149.363281 412.246094 C 1128.882812 419.003906 1108.195312 423.050781 1088.425781 415.976562 C 1076.492188 411.707031 1070.359375 401.621094 1065.757812 390.203125 C 1067.105469 391.949219 1068.558594 393.613281 1070.144531 395.160156 C 1084.628906 409.273438 1107.011719 411.140625 1125.882812 408.03125 C 1150.5625 403.960938 1173.988281 394.480469 1197.382812 385.074219 C 1223.46875 374.578125 1249.136719 362.835938 1274.207031 350.207031 C 1325.789062 324.226562 1376.457031 295.757812 1424.496094 263.671875 C 1429.699219 260.195312 1434.886719 256.65625 1440.0625 253.082031 L 1440.0625 240.519531 C 1350.441406 302.601562 1253.207031 355.535156 1150.058594 391.046875 C 1129.601562 398.089844 1108.71875 402.4375 1088.972656 395.324219 C 1076.550781 390.847656 1070.554688 380.03125 1065.894531 367.976562 C 1067.449219 370.101562 1069.152344 372.109375 1071.03125 373.957031 C 1085.46875 388.160156 1107.597656 389.984375 1126.449219 386.652344 C 1151.15625 382.285156 1174.523438 372.476562 1197.949219 362.902344 C 1223.867188 352.300781 1249.582031 340.847656 1274.714844 328.710938 C 1326.597656 303.652344 1377.066406 274.625 1425.003906 242.609375 C 1430.035156 239.246094 1435.054688 235.820312 1440.0625 232.367188 L 1440.0625 220.386719 C 1350.335938 282.332031 1253.671875 333.585938 1150.757812 369.945312 C 1130.300781 377.171875 1109.230469 381.839844 1089.515625 374.679688 C 1076.328125 369.890625 1069.902344 357.351562 1064.652344 343.9375 C 1066.664062 347.160156 1069.007812 350.179688 1071.851562 352.894531 C 1086.539062 366.890625 1108.171875 368.832031 1127.015625 365.359375 C 1151.6875 360.8125 1175.027344 350.851562 1198.515625 341.402344 C 1224.449219 330.96875 1250.148438 319.757812 1275.222656 307.644531 C 1327.105469 282.585938 1377.574219 253.558594 1425.511719 221.542969 C 1430.371094 218.296875 1435.222656 214.992188 1440.0625 211.664062 L 1440.0625 200.257812 C 1350.730469 262.246094 1253.96875 312.851562 1151.453125 349.132812 C 1130.949219 356.386719 1109.820312 361.226562 1090.050781 354.054688 C 1076.332031 349.078125 1069.84375 336.0625 1064.585938 322.160156 C 1066.707031 325.746094 1069.269531 329.078125 1072.503906 332.019531 C 1087.398438 345.5625 1108.703125 347.757812 1127.582031 344.269531 C 1152.265625 339.707031 1175.601562 329.882812 1199.082031 320.378906 C 1224.980469 309.898438 1250.667969 298.683594 1275.730469 286.582031 C 1327.613281 261.519531 1377.976562 232.472656 1426.019531 200.476562 C 1430.726562 197.339844 1435.402344 194.128906 1440.0625 190.882812 L 1440.0625 179.828125 C 1350.074219 241.199219 1254.394531 293.566406 1152.152344 328.652344 C 1131.484375 335.742188 1110.894531 340.71875 1090.578125 333.441406 C 1075.757812 328.132812 1069.597656 314.480469 1064.675781 299.957031 C 1066.808594 304.027344 1069.476562 307.792969 1073.019531 311.070312 C 1087.671875 324.632812 1109.558594 326.714844 1128.148438 323.28125 C 1152.8125 318.722656 1176.175781 308.789062 1199.648438 299.289062 C 1225.527344 288.816406 1251.195312 277.609375 1276.238281 265.515625 C 1328.105469 240.464844 1378.175781 211.378906 1426.164062 179.296875 C 1430.804688 176.195312 1435.4375 173.058594 1440.0625 169.910156 L 1440.0625 159.863281 C 1350.488281 221.128906 1254.605469 273.121094 1152.847656 308.035156 C 1132.089844 315.15625 1111.726562 320.023438 1091.101562 312.816406 C 1074.914062 307.160156 1069.355469 291.585938 1064.648438 275.71875 C 1066.859375 281 1069.777344 285.875 1074.03125 289.988281 C 1088.261719 303.746094 1110.429688 305.570312 1128.714844 302.191406 C 1153.378906 297.632812 1176.742188 287.699219 1200.210938 278.199219 C 1226.074219 267.730469 1251.722656 256.535156 1276.746094 244.449219 C 1328.648438 219.382812 1378.964844 190.148438 1426.996094 158.335938 C 1431.363281 155.441406 1435.71875 152.488281 1440.0625 149.515625 L 1440.0625 140.160156 C 1351.476562 201.695312 1254.398438 252.820312 1153.542969 287.417969 C 1132.746094 294.550781 1112.320312 299.425781 1091.652344 292.183594 C 1075.65625 286.578125 1070.640625 270.269531 1066.160156 254.402344 C 1068.3125 259.710938 1071.140625 264.644531 1075.269531 268.84375 C 1089.046875 282.855469 1111.265625 284.429688 1129.28125 281.101562 C 1153.945312 276.542969 1177.308594 266.609375 1200.777344 257.109375 C 1226.621094 246.648438 1252.25 235.460938 1277.253906 223.382812 C 1329.148438 198.320312 1380.554688 169.855469 1428.320312 137.527344 C 1432.253906 134.863281 1436.164062 132.140625 1440.0625 129.390625 L 1440.0625 120.53125 C 1352.523438 182.527344 1254.339844 232.476562 1154.242188 266.800781 C 1133.386719 273.953125 1112.761719 278.886719 1092.191406 271.550781 C 1075.839844 265.71875 1071.292969 247.949219 1066.5625 231.449219 C 1069.050781 237.523438 1072.15625 243.113281 1076.488281 247.703125 C 1089.898438 261.917969 1112.035156 263.304688 1129.847656 260.011719 C 1154.511719 255.453125 1177.875 245.519531 1201.34375 236.019531 C 1227.167969 225.566406 1252.777344 214.386719 1277.761719 202.320312 C 1330.105469 177.035156 1382.46875 150.539062 1429.78125 116.761719 C 1433.214844 114.308594 1436.640625 111.808594 1440.0625 109.296875 L 1440.0625 100.765625 C 1352.9375 163.433594 1255.351562 211.757812 1154.9375 246.183594 C 1134.027344 253.351562 1113.207031 258.347656 1092.730469 250.921875 Z M 1168.128906 166.996094 C 1148.125 172.042969 1123.042969 179.003906 1102.929688 170.941406 C 1083.707031 163.242188 1107.144531 136.382812 1108.59375 125.097656 C 1111.152344 105.1875 1071.890625 104.558594 1059.808594 104.523438 C 1031.695312 104.445312 1002.316406 108.617188 974.730469 115.621094 C 942.875 123.707031 911.253906 144.707031 878.875 146.265625 C 854.792969 147.425781 829.675781 139.007812 806.183594 132.34375 C 767.664062 121.421875 728.277344 105.796875 688.902344 101.640625 C 662.234375 98.824219 637.847656 103.203125 612.136719 111.820312 C 582.472656 121.761719 552.449219 131.421875 522.253906 139.203125 C 485.59375 148.652344 447.542969 156.523438 410.125 158.09375 C 380.46875 159.335938 345.84375 156.789062 320.328125 138.988281 C 302.328125 126.4375 286.390625 113.617188 265.523438 107.207031 C 242.53125 100.140625 216.765625 99.691406 192.519531 100.566406 C 165.453125 101.546875 138.019531 104.8125 110.824219 107.757812 C 80.785156 111.007812 50.746094 114.441406 20.726562 117.9375 C 13.820312 118.742188 6.910156 119.539062 0 120.339844 L 0 125.164062 C 51.558594 119.019531 103.1875 112.515625 154.707031 107.558594 C 180.503906 105.078125 206.875 103.203125 232.183594 105.660156 C 255.425781 107.917969 279.53125 114.1875 298.683594 128.957031 C 319.203125 144.769531 338.945312 155.910156 364.410156 160.453125 C 398.128906 166.472656 435.015625 161.378906 468.785156 155.320312 C 503.980469 149.007812 539.261719 139.894531 573.523438 129.191406 C 600.355469 120.8125 626.886719 110.050781 654.558594 105.339844 C 672.527344 102.28125 691.148438 104.257812 708.832031 107.53125 C 730.972656 111.628906 753.101562 118.9375 774.859375 125.582031 C 801.894531 133.839844 829.984375 144.308594 857.585938 148.390625 C 890.960938 153.332031 912.433594 142.117188 942.59375 129.808594 C 966.644531 119.996094 992.867188 114.84375 1018.625 111.238281 C 1039.484375 108.316406 1086.75 100.078125 1100.558594 118.992188 C 1110.773438 132.980469 1084.296875 151.378906 1090.445312 166.984375 C 1096.246094 181.714844 1125.054688 178.75 1137.050781 177.207031 C 1164.210938 173.714844 1191.84375 164.652344 1218.644531 156.398438 C 1247.097656 147.632812 1275.570312 137.710938 1302.277344 125.148438 C 1326.820312 113.601562 1350.414062 99.472656 1372.074219 82.550781 C 1391.882812 67.074219 1409.558594 49.628906 1432.601562 39.632812 C 1435.0625 38.566406 1437.554688 37.566406 1440.0625 36.613281 L 1440.0625 34.503906 C 1401.867188 49.507812 1374.660156 78.648438 1339.027344 101.246094 C 1287.101562 134.171875 1226.871094 152.171875 1168.128906 166.996094 Z M 1338.710938 30.011719 C 1320.585938 39.0625 1305.097656 52.289062 1289.238281 64.679688 C 1268.90625 80.5625 1246.679688 92.339844 1222.898438 100.914062 C 1205.625 107.144531 1181.78125 114.792969 1163.734375 106.917969 C 1153.714844 102.542969 1151.195312 92.71875 1147.355469 83.324219 C 1141.59375 69.238281 1133.039062 56.558594 1122.796875 46.324219 C 1103.8125 27.359375 1076.058594 15.808594 1047.988281 18.011719 C 1021.53125 20.089844 997.214844 29.128906 972.738281 39.625 C 920.679688 61.953125 865.601562 86.046875 807.957031 87.738281 C 778.257812 88.609375 747.191406 84.121094 720.257812 73.550781 C 696.179688 64.105469 681.796875 34.601562 656.109375 29.128906 C 630.800781 23.734375 606.746094 31.71875 582.863281 41.570312 C 556.917969 52.273438 531.042969 65.167969 504.789062 74.730469 C 478.210938 84.410156 449.746094 91.324219 421.847656 92.152344 C 394.796875 92.957031 369.378906 86.347656 346.691406 69.703125 C 325.125 53.882812 302.882812 37.054688 278.160156 28.890625 C 253.925781 20.890625 227.300781 19.25 201.273438 20.085938 C 173.507812 20.976562 145.265625 24.363281 117.339844 27.054688 C 86.3125 30.046875 55.175781 32.945312 24.132812 36.046875 C 16.089844 36.847656 8.046875 37.671875 0 38.507812 L 0 41.4375 C 54.445312 35.75 109.03125 30.53125 163.433594 25.6875 C 190.253906 23.296875 217.242188 21.699219 243.738281 24.625 C 271.648438 27.710938 299.046875 38.617188 322.09375 55.335938 C 341.863281 69.679688 362.117188 87.746094 386.679688 92.074219 C 412.867188 96.683594 439.585938 94.480469 465.296875 88.957031 C 491.75 83.273438 517.542969 73.453125 542.546875 62.328125 C 568.632812 50.726562 595.15625 36.777344 622.410156 31.746094 C 637.605469 28.9375 652.570312 29.621094 666.230469 36.132812 C 678.53125 41.996094 687.117188 54.820312 698.105469 63.363281 C 719.207031 79.761719 749.730469 85.746094 776.15625 88.410156 C 829.511719 93.785156 878.746094 80.453125 928.246094 61.851562 C 956.945312 51.066406 985.234375 36.902344 1014.558594 27.890625 C 1046.375 18.113281 1078.910156 17.875 1106.070312 35.824219 C 1119.148438 44.464844 1130.34375 56.695312 1138.3125 71.28125 C 1143.582031 80.925781 1145.070312 92.769531 1151.527344 101.640625 C 1161.253906 115 1181.964844 112.808594 1195.414062 110.53125 C 1218.71875 106.589844 1242.019531 97.21875 1263.082031 85.332031 C 1281.953125 74.683594 1298.238281 60.082031 1315.675781 47.390625 C 1351.195312 21.542969 1391.058594 18.632812 1431.8125 8.046875 C 1434.589844 7.324219 1437.339844 6.515625 1440.0625 5.625 L 1440.0625 2.3125 C 1406.855469 13.492188 1370.789062 13.996094 1338.710938 30.011719 Z M 1285.980469 86.464844 C 1262.671875 100.542969 1236.960938 110.507812 1211.355469 118.113281 C 1193.566406 123.394531 1167.882812 131.398438 1150.0625 123.40625 C 1141.476562 119.554688 1141.566406 110.699219 1141.148438 102.34375 C 1140.492188 89.261719 1138.453125 79.804688 1130.945312 69.753906 C 1115.71875 49.367188 1084.742188 40.910156 1059.269531 42.375 C 1030.894531 44.007812 1003.984375 52.5 977.066406 61.871094 C 928.515625 78.773438 876.976562 101.691406 824.722656 102.671875 C 794.71875 103.234375 763.566406 98.109375 735.6875 89.882812 C 719.878906 85.21875 704.320312 78.210938 689.902344 69.222656 C 678.824219 62.316406 668.226562 52.445312 655.527344 49.769531 C 630.296875 44.457031 606.117188 52.273438 582.34375 62.214844 C 557.664062 72.539062 532.8125 84.144531 507.433594 92.339844 C 478.972656 101.523438 448.632812 107.898438 419.074219 108.863281 C 392.457031 109.726562 364.949219 105.542969 342.765625 88.695312 C 322.386719 73.214844 300.875 57.988281 277.042969 50.277344 C 252.742188 42.417969 226.164062 40.660156 200.148438 41.386719 C 172.480469 42.15625 144.34375 45.375 116.511719 47.941406 C 85.546875 50.792969 54.476562 53.582031 23.515625 56.632812 C 15.679688 57.40625 7.839844 58.210938 0 59.027344 L 0 62.496094 C 54.121094 56.882812 108.367188 51.8125 162.464844 47.257812 C 189.214844 45.003906 216.441406 43.308594 242.546875 46.503906 C 270.351562 49.90625 297.390625 59.996094 320.449219 76.050781 C 340.203125 89.808594 357.476562 104.632812 381.402344 109.398438 C 408.519531 114.800781 438.730469 111.1875 466.074219 105.917969 C 493.242188 100.679688 520.035156 92.105469 545.851562 81.558594 C 570.988281 71.289062 595.816406 57.714844 621.796875 52.902344 C 636.933594 50.097656 651.671875 50.804688 665.488281 57.183594 C 679.640625 63.71875 693.257812 74.640625 708.015625 81.554688 C 735.011719 94.207031 766.867188 100.394531 796.457031 103.386719 C 843.570312 108.15625 883.976562 96.988281 928.773438 82.152344 C 960.066406 71.792969 991.363281 59.894531 1023.160156 51.871094 C 1053.78125 44.148438 1090.535156 40.714844 1116.121094 60.273438 C 1126.785156 68.425781 1134.996094 77.742188 1136.640625 92.238281 C 1137.640625 101.0625 1135.195312 110.925781 1138.804688 118.882812 C 1144.90625 132.332031 1169.863281 128.882812 1181.054688 127.273438 C 1206.492188 123.609375 1232.09375 114.792969 1255.976562 104.363281 C 1278.453125 94.542969 1298.953125 82.199219 1318.273438 66.574219 C 1334.582031 53.390625 1350.945312 40.355469 1370.382812 31.984375 C 1389.964844 23.550781 1411.140625 20.660156 1431.832031 17.03125 C 1434.582031 16.550781 1437.324219 16.03125 1440.0625 15.484375 L 1440.0625 13.648438 C 1406.566406 21.359375 1372.714844 24.339844 1342.691406 44.398438 C 1323.0625 57.511719 1306.242188 74.226562 1285.980469 86.464844 Z M 1343.070312 81.660156 C 1295.761719 117.632812 1238.046875 136.601562 1181.539062 150.386719 C 1162.277344 155.085938 1136.363281 162.496094 1116.722656 154.492188 C 1100.722656 147.972656 1123.070312 119.460938 1121.65625 108.792969 C 1118.921875 88.175781 1082.890625 86.105469 1066.308594 86.429688 C 1035.777344 87.03125 1005.011719 92.425781 975.339844 99.972656 C 939.472656 109.097656 900.871094 130.289062 863.34375 130.757812 C 836.472656 131.09375 809.226562 124.292969 783.25 118.039062 C 745.558594 108.96875 707.933594 91.75 670.257812 86.691406 C 645.207031 83.328125 622.449219 88.074219 598.441406 96.957031 C 571.78125 106.824219 544.757812 116.300781 517.429688 123.601562 C 483.480469 132.671875 447.980469 139.625 413.203125 140.960938 C 384.714844 142.054688 352.328125 139.746094 328.375 122.558594 C 310.226562 109.53125 293.144531 96.109375 271.960938 89.695312 C 248.394531 82.558594 222.230469 81.328125 196.996094 82.007812 C 169.480469 82.746094 141.558594 85.800781 113.886719 88.453125 C 83.273438 91.386719 52.636719 94.464844 22.050781 97.707031 C 14.703125 98.488281 7.351562 99.28125 0 100.074219 L 0 104.425781 C 52.964844 98.621094 106.015625 92.851562 158.949219 88.386719 C 185.328125 86.164062 212.257812 84.53125 238.066406 87.347656 C 262.28125 89.992188 287.398438 96.875 307.488281 112.136719 C 327.347656 127.222656 345.367188 138.859375 369.6875 142.699219 C 401.496094 147.726562 436.050781 143.785156 468.5 138.113281 C 500.40625 132.535156 532.507812 124.34375 563.339844 113.902344 C 587.863281 105.59375 611.960938 94.855469 637.351562 90.089844 C 654.035156 86.957031 671.351562 89.183594 687.667969 92.839844 C 708.792969 97.570312 729.929688 105.375 750.96875 111.378906 C 780.394531 119.773438 811.105469 128.277344 841.234375 132.089844 C 877.023438 136.617188 903.257812 126.460938 936.8125 115.042969 C 964.914062 105.484375 994.230469 98.710938 1023.554688 94.097656 C 1048.242188 90.214844 1093.007812 81.726562 1112.3125 101.9375 C 1126.511719 116.808594 1101.035156 136.78125 1105.339844 150.554688 C 1109.460938 163.75 1137.429688 161.121094 1149.042969 159.71875 C 1176.597656 156.390625 1204.636719 147.855469 1231.546875 139.195312 C 1258.671875 130.46875 1285.71875 120.058594 1310.457031 106.5 C 1352.546875 83.421875 1385.492188 43.886719 1432.546875 30.257812 C 1435.019531 29.539062 1437.53125 28.898438 1440.0625 28.296875 L 1440.0625 26.796875 C 1426.371094 29.75 1412.964844 33.640625 1400.226562 39.957031 C 1378.632812 50.664062 1362.023438 67.25 1343.070312 81.660156 Z M 1344.234375 61.480469 C 1299.222656 97.59375 1252.175781 119.980469 1196.761719 134.347656 C 1178.257812 139.148438 1152.28125 146.839844 1133.414062 138.957031 C 1119.089844 132.96875 1135.078125 103.007812 1130.382812 90.667969 C 1121.878906 68.324219 1086.199219 64.832031 1066.515625 65.46875 C 1036.167969 66.449219 1005.976562 74.148438 976.589844 82.339844 C 934.289062 94.128906 888.945312 116.132812 844.230469 116.621094 C 815.390625 116.9375 785.929688 110.980469 758.207031 104.300781 C 724.144531 96.09375 691.46875 75.753906 658.007812 69.679688 C 633.695312 65.265625 610.964844 71.335938 587.671875 80.78125 C 562.78125 90.875 537.679688 100.90625 512.074219 108.304688 C 480.992188 117.285156 448.238281 123.683594 416.195312 124.839844 C 388.976562 125.824219 358.960938 123.027344 336.261719 106.050781 C 317.289062 91.863281 298.246094 77.832031 275.949219 70.890625 C 251.75 63.359375 225.167969 61.660156 199.296875 62.296875 C 171.671875 62.976562 143.597656 66.019531 115.800781 68.542969 C 84.894531 71.34375 53.933594 74.210938 23.050781 77.304688 C 15.371094 78.074219 7.683594 78.863281 0 79.65625 L 0 83.566406 C 53.84375 77.976562 107.777344 72.691406 161.589844 68.371094 C 188.285156 66.226562 215.453125 64.695312 241.550781 67.769531 C 267.066406 70.773438 293.910156 78.878906 315.238281 94.765625 C 334.867188 109.382812 351.691406 122.023438 375.550781 125.976562 C 405.003906 130.855469 437.285156 127.347656 467.375 121.972656 C 496.414062 116.785156 525.652344 108.867188 553.453125 98.386719 C 577.230469 89.421875 600.640625 77.792969 625.261719 72.960938 C 641.03125 69.867188 656.675781 71.878906 671.824219 76.472656 C 690.179688 82.039062 708.679688 91.085938 727.171875 97.132812 C 756.710938 106.785156 788.503906 114.136719 819.492188 117.519531 C 860.105469 121.949219 893.183594 111.890625 931.859375 99.546875 C 963.117188 89.570312 994.847656 80.710938 1026.972656 74.34375 C 1055.226562 68.742188 1095.484375 62.019531 1119.28125 82.617188 C 1138.167969 98.960938 1116.753906 118.757812 1122.421875 134.855469 C 1126.980469 147.796875 1153.324219 144.804688 1164.65625 143.371094 C 1191.558594 139.972656 1218.847656 131.472656 1244.730469 122.085938 C 1269.75 113.011719 1294.453125 101.796875 1316.304688 87.117188 C 1335.390625 74.296875 1352.535156 57.097656 1372.617188 44.863281 C 1391.289062 33.492188 1411.011719 27.492188 1432.179688 23.574219 C 1434.789062 23.09375 1437.421875 22.632812 1440.0625 22.183594 L 1440.0625 20.644531 C 1424.914062 23.1875 1409.773438 25.863281 1395.335938 31.046875 C 1376.363281 37.855469 1359.875 48.929688 1344.234375 61.480469 Z M 1344.234375 61.480469 " fill-opacity="1" fill-rule="nonzero"/></g></g></g></g></svg>