<svg xmlns="http://www.w3.org/2000/svg" xmlns:xlink="http://www.w3.org/1999/xlink" width="1920" zoomAndPan="magnify" viewBox="0 0 1440 809.999993" height="1080" preserveAspectRatio="xMidYMid meet" version="1.0"><defs><clipPath id="4941c77c3f"><path d="M 40.5 306 L 1399.5 306 L 1399.5 651 L 40.5 651 Z M 40.5 306 " clip-rule="nonzero"/></clipPath><clipPath id="e1b3033587"><path d="M 40.5 159 L 1399.5 159 L 1399.5 358 L 40.5 358 Z M 40.5 159 " clip-rule="nonzero"/></clipPath><clipPath id="82965b8051"><path d="M 125 12.496094 L 1315 12.496094 L 1315 211 L 125 211 Z M 125 12.496094 " clip-rule="nonzero"/></clipPath><clipPath id="621364dd38"><path d="M 125 599 L 1315 599 L 1315 797.746094 L 125 797.746094 Z M 125 599 " clip-rule="nonzero"/></clipPath></defs><g clip-path="url(#4941c77c3f)"><path fill="#2c883c" d="M 1399.445312 502.636719 L 1398.640625 502.171875 L 1398.640625 501.238281 L 1397.832031 501.703125 L 1313.910156 453.242188 L 1313.910156 356.339844 L 1314.714844 355.875 L 1313.910156 355.410156 L 1313.910156 354.476562 L 1313.101562 354.941406 L 1228.371094 306.015625 L 1143.640625 354.941406 L 1058.90625 306.015625 L 974.175781 354.941406 L 889.445312 306.015625 L 804.714844 354.941406 L 719.980469 306.015625 L 635.964844 354.53125 L 635.25 354.941406 L 634.539062 354.53125 L 550.519531 306.015625 L 466.5 354.53125 L 465.789062 354.941406 L 465.132812 354.5625 L 381.058594 306.015625 L 297.039062 354.53125 L 296.324219 354.941406 L 295.613281 354.53125 L 211.59375 306.015625 L 126.863281 354.941406 L 126.054688 354.476562 L 126.054688 355.410156 L 125.25 355.875 L 126.054688 356.339844 L 126.054688 453.242188 L 42.132812 501.703125 L 41.324219 501.238281 L 41.324219 502.171875 L 40.519531 502.636719 L 41.324219 503.101562 L 41.324219 600.929688 L 126.054688 649.855469 L 126.054688 650.789062 L 126.863281 650.324219 L 127.667969 650.789062 L 127.667969 649.855469 L 211.59375 601.394531 L 295.519531 649.855469 L 295.519531 650.789062 L 296.324219 650.324219 L 297.132812 650.789062 L 297.132812 649.855469 L 381.054688 601.394531 L 464.980469 649.855469 L 464.980469 650.789062 L 465.789062 650.324219 L 466.59375 650.789062 L 466.59375 649.855469 L 550.519531 601.394531 L 634.445312 649.855469 L 634.445312 650.789062 L 635.25 650.324219 L 636.058594 650.789062 L 636.058594 649.855469 L 719.980469 601.394531 L 803.90625 649.855469 L 803.90625 650.789062 L 804.714844 650.324219 L 805.519531 650.789062 L 805.519531 649.855469 L 889.445312 601.394531 L 973.367188 649.855469 L 973.367188 650.789062 L 974.175781 650.324219 L 974.984375 650.789062 L 974.984375 649.855469 L 1058.90625 601.394531 L 1142.832031 649.855469 L 1142.832031 650.789062 L 1143.640625 650.324219 L 1144.445312 650.789062 L 1144.445312 649.855469 L 1228.371094 601.394531 L 1312.292969 649.855469 L 1312.292969 650.789062 L 1313.101562 650.324219 L 1313.910156 650.789062 L 1313.910156 649.855469 L 1398.238281 601.160156 L 1398.640625 600.929688 L 1398.640625 503.101562 Z M 634.445312 453.234375 L 551.324219 501.234375 L 551.324219 405.253906 L 634.445312 357.273438 Z M 464.980469 453.234375 L 381.863281 501.234375 L 381.863281 405.253906 L 464.980469 357.273438 Z M 295.519531 453.234375 L 212.402344 501.234375 L 212.402344 405.253906 L 295.519531 357.273438 Z M 803.90625 453.234375 L 720.789062 501.234375 L 720.789062 405.253906 L 803.90625 357.273438 Z M 973.367188 453.234375 L 890.25 501.234375 L 890.25 405.253906 L 973.367188 357.273438 Z M 1142.832031 453.234375 L 1059.714844 501.234375 L 1059.714844 405.253906 L 1142.832031 357.273438 Z M 1227.5625 405.253906 L 1227.5625 501.234375 L 1144.445312 453.234375 L 1144.445312 357.273438 L 1153.023438 362.222656 Z M 1058.101562 405.253906 L 1058.101562 501.234375 L 974.984375 453.234375 L 974.984375 357.273438 L 983.558594 362.222656 Z M 888.636719 405.253906 L 888.636719 501.234375 L 805.519531 453.234375 L 805.519531 357.273438 L 814.097656 362.222656 Z M 719.175781 405.253906 L 719.175781 501.234375 L 636.058594 453.234375 L 636.058594 357.273438 L 673.597656 378.941406 Z M 549.710938 405.253906 L 549.710938 501.234375 L 466.59375 453.234375 L 466.59375 357.273438 L 504.136719 378.941406 Z M 380.25 405.253906 L 380.25 501.234375 L 297.132812 453.234375 L 297.132812 357.273438 L 334.671875 378.941406 Z M 296.324219 454.640625 L 379.441406 502.636719 L 296.324219 550.617188 L 213.207031 502.636719 Z M 465.789062 454.640625 L 548.90625 502.636719 L 465.789062 550.617188 L 382.671875 502.636719 Z M 635.25 454.640625 L 718.367188 502.636719 L 635.25 550.617188 L 552.132812 502.636719 Z M 804.714844 454.640625 L 887.832031 502.636719 L 804.714844 550.617188 L 721.59375 502.636719 Z M 974.175781 454.640625 L 1057.292969 502.636719 L 974.175781 550.617188 L 891.058594 502.636719 Z M 1143.640625 454.640625 L 1226.757812 502.636719 L 1143.640625 550.617188 L 1060.519531 502.636719 Z M 1312.292969 453.234375 L 1229.175781 501.234375 L 1229.175781 405.253906 L 1312.292969 357.273438 Z M 1313.101562 550.617188 L 1229.984375 502.636719 L 1313.101562 454.640625 L 1396.21875 502.636719 Z M 1311.488281 355.875 L 1228.371094 403.855469 L 1145.253906 355.875 L 1228.371094 307.878906 Z M 1142.027344 355.875 L 1058.90625 403.855469 L 975.789062 355.875 L 1058.90625 307.878906 Z M 972.5625 355.875 L 889.445312 403.855469 L 806.328125 355.875 L 889.445312 307.878906 Z M 803.101562 355.875 L 719.980469 403.855469 L 636.863281 355.875 L 719.980469 307.878906 Z M 633.636719 355.875 L 550.519531 403.855469 L 467.402344 355.875 L 550.519531 307.878906 Z M 464.175781 355.875 L 381.054688 403.855469 L 297.9375 355.875 L 381.058594 307.878906 Z M 211.59375 307.878906 L 294.710938 355.875 L 211.59375 403.855469 L 128.476562 355.875 Z M 210.789062 405.253906 L 210.789062 501.234375 L 127.667969 453.234375 L 127.667969 357.273438 L 165.210938 378.941406 Z M 126.863281 454.640625 L 209.980469 502.636719 L 126.863281 550.617188 L 43.746094 502.636719 Z M 42.9375 599.996094 L 42.9375 504.035156 L 80.476562 525.703125 L 126.054688 552.015625 L 126.054688 647.992188 Z M 127.667969 552.015625 L 210.789062 504.035156 L 210.789062 599.996094 L 127.667969 647.992188 Z M 212.402344 599.996094 L 212.402344 504.035156 L 249.941406 525.703125 L 295.519531 552.015625 L 295.519531 647.992188 Z M 297.132812 552.015625 L 380.25 504.035156 L 380.25 599.996094 L 297.132812 647.992188 Z M 381.863281 599.996094 L 381.863281 504.035156 L 418.910156 525.417969 L 464.980469 552.015625 L 464.980469 647.992188 Z M 466.59375 552.015625 L 549.710938 504.035156 L 549.710938 599.996094 L 466.59375 647.992188 Z M 551.324219 599.996094 L 551.324219 504.035156 L 588.867188 525.703125 L 634.445312 552.015625 L 634.445312 647.992188 Z M 636.058594 552.015625 L 719.175781 504.035156 L 719.175781 599.996094 L 636.058594 647.992188 Z M 720.789062 599.996094 L 720.789062 504.035156 L 729.367188 508.984375 L 803.90625 552.015625 L 803.90625 647.992188 Z M 805.519531 552.015625 L 888.636719 504.035156 L 888.636719 599.996094 L 805.519531 647.992188 Z M 890.25 599.996094 L 890.25 504.035156 L 898.828125 508.984375 L 973.367188 552.015625 L 973.367188 647.992188 Z M 974.984375 552.015625 L 1058.101562 504.035156 L 1058.101562 599.996094 L 974.984375 647.992188 Z M 1059.714844 599.996094 L 1059.714844 504.035156 L 1068.292969 508.984375 L 1142.832031 552.015625 L 1142.832031 647.992188 Z M 1144.445312 552.015625 L 1227.5625 504.035156 L 1227.5625 599.996094 L 1144.445312 647.992188 Z M 1229.175781 599.996094 L 1229.175781 504.035156 L 1237.753906 508.984375 L 1312.292969 552.015625 L 1312.292969 647.992188 Z M 1397.027344 599.996094 L 1313.910156 647.992188 L 1313.910156 552.015625 L 1397.027344 504.035156 Z M 1397.027344 599.996094 " fill-opacity="1" fill-rule="nonzero"/></g><g clip-path="url(#e1b3033587)"><path fill="#2c883c" d="M 1399.445312 209.117188 L 1398.640625 208.652344 L 1398.640625 207.722656 L 1397.832031 208.1875 L 1313.101562 159.257812 L 1228.371094 208.1875 L 1143.640625 159.257812 L 1058.90625 208.1875 L 974.175781 159.257812 L 889.445312 208.1875 L 804.714844 159.257812 L 719.980469 208.1875 L 719.269531 207.777344 L 635.25 159.257812 L 551.230469 207.777344 L 550.519531 208.1875 L 549.808594 207.777344 L 465.789062 159.257812 L 381.71875 207.804688 L 381.058594 208.1875 L 380.347656 207.777344 L 296.324219 159.257812 L 212.308594 207.777344 L 211.59375 208.1875 L 210.882812 207.777344 L 126.863281 159.257812 L 42.132812 208.1875 L 41.324219 207.722656 L 41.324219 208.652344 L 40.519531 209.117188 L 41.324219 209.585938 L 41.324219 307.414062 L 126.054688 356.339844 L 126.054688 357.273438 L 126.863281 356.804688 L 127.667969 357.273438 L 127.667969 356.339844 L 211.59375 307.878906 L 295.519531 356.339844 L 295.519531 357.273438 L 296.324219 356.804688 L 297.132812 357.273438 L 297.132812 356.339844 L 381.054688 307.878906 L 464.980469 356.339844 L 464.980469 357.273438 L 465.789062 356.804688 L 466.59375 357.273438 L 466.59375 356.339844 L 550.519531 307.878906 L 634.445312 356.339844 L 634.445312 357.273438 L 635.25 356.804688 L 636.058594 357.273438 L 636.058594 356.339844 L 719.980469 307.878906 L 803.90625 356.339844 L 803.90625 357.273438 L 804.714844 356.804688 L 805.519531 357.273438 L 805.519531 356.339844 L 889.445312 307.878906 L 973.367188 356.339844 L 973.367188 357.273438 L 974.175781 356.804688 L 974.984375 357.273438 L 974.984375 356.339844 L 1058.90625 307.878906 L 1142.832031 356.339844 L 1142.832031 357.273438 L 1143.640625 356.804688 L 1144.445312 357.273438 L 1144.445312 356.339844 L 1228.371094 307.878906 L 1312.292969 356.339844 L 1312.292969 357.273438 L 1313.101562 356.804688 L 1313.910156 357.273438 L 1313.910156 356.339844 L 1398.238281 307.644531 L 1398.640625 307.414062 L 1398.640625 209.585938 Z M 1396.21875 209.117188 L 1313.101562 257.101562 L 1229.984375 209.117188 L 1313.101562 161.121094 Z M 1226.757812 209.117188 L 1143.640625 257.101562 L 1060.519531 209.117188 L 1143.640625 161.121094 Z M 1057.292969 209.117188 L 974.175781 257.101562 L 891.058594 209.117188 L 974.175781 161.121094 Z M 887.832031 209.117188 L 804.714844 257.101562 L 721.59375 209.117188 L 804.714844 161.121094 Z M 718.367188 209.117188 L 635.25 257.101562 L 552.132812 209.117188 L 635.25 161.121094 Z M 548.90625 209.117188 L 465.789062 257.101562 L 382.671875 209.117188 L 465.789062 161.121094 Z M 379.441406 209.117188 L 296.324219 257.101562 L 213.207031 209.117188 L 296.324219 161.121094 Z M 126.863281 161.121094 L 209.980469 209.117188 L 126.863281 257.101562 L 43.746094 209.117188 Z M 42.9375 306.480469 L 42.9375 210.515625 L 80.476562 232.1875 L 126.054688 258.5 L 126.054688 354.476562 Z M 127.667969 258.5 L 210.789062 210.515625 L 210.789062 306.480469 L 127.667969 354.476562 Z M 212.402344 306.480469 L 212.402344 210.515625 L 249.941406 232.1875 L 295.519531 258.5 L 295.519531 354.476562 Z M 297.132812 258.5 L 380.25 210.515625 L 380.25 306.480469 L 297.132812 354.476562 Z M 381.863281 306.480469 L 381.863281 210.515625 L 418.910156 231.902344 L 464.980469 258.5 L 464.980469 354.476562 Z M 466.59375 258.5 L 549.710938 210.515625 L 549.710938 306.480469 L 466.59375 354.476562 Z M 551.324219 306.480469 L 551.324219 210.515625 L 588.867188 232.1875 L 634.445312 258.5 L 634.445312 354.476562 Z M 636.058594 258.5 L 719.175781 210.515625 L 719.175781 306.480469 L 636.058594 354.476562 Z M 720.789062 306.480469 L 720.789062 210.515625 L 729.367188 215.46875 L 803.90625 258.5 L 803.90625 354.476562 Z M 805.519531 258.5 L 888.636719 210.515625 L 888.636719 306.480469 L 805.519531 354.476562 Z M 890.25 306.480469 L 890.25 210.515625 L 898.828125 215.46875 L 973.367188 258.5 L 973.367188 354.476562 Z M 974.984375 258.5 L 1058.101562 210.515625 L 1058.101562 306.480469 L 974.984375 354.476562 Z M 1059.714844 306.480469 L 1059.714844 210.515625 L 1068.292969 215.46875 L 1142.832031 258.5 L 1142.832031 354.476562 Z M 1144.445312 258.5 L 1227.5625 210.515625 L 1227.5625 306.480469 L 1144.445312 354.476562 Z M 1229.175781 306.480469 L 1229.175781 210.515625 L 1237.753906 215.46875 L 1312.292969 258.5 L 1312.292969 354.476562 Z M 1397.027344 306.480469 L 1313.910156 354.476562 L 1313.910156 258.5 L 1397.027344 210.515625 Z M 1397.027344 306.480469 " fill-opacity="1" fill-rule="nonzero"/></g><g clip-path="url(#82965b8051)"><path fill="#2c883c" d="M 1313.910156 62.820312 L 1314.714844 62.355469 L 1313.910156 61.890625 L 1313.910156 60.960938 L 1313.101562 61.425781 L 1228.371094 12.496094 L 1143.640625 61.425781 L 1058.90625 12.496094 L 974.175781 61.425781 L 889.445312 12.496094 L 804.714844 61.425781 L 719.980469 12.496094 L 635.957031 61.019531 L 635.25 61.425781 L 634.546875 61.019531 L 550.519531 12.496094 L 466.488281 61.019531 L 465.789062 61.425781 L 465.144531 61.054688 L 381.058594 12.496094 L 297.03125 61.019531 L 296.324219 61.425781 L 295.625 61.019531 L 211.59375 12.496094 L 126.863281 61.425781 L 126.054688 60.960938 L 126.054688 61.890625 L 125.25 62.355469 L 126.054688 62.824219 L 126.054688 160.648438 L 210.789062 209.578125 L 210.789062 210.507812 L 211.59375 210.042969 L 212.402344 210.507812 L 212.402344 209.578125 L 296.324219 161.117188 L 380.25 209.578125 L 380.25 210.507812 L 381.058594 210.042969 L 381.863281 210.507812 L 381.863281 209.578125 L 465.789062 161.117188 L 549.710938 209.578125 L 549.710938 210.507812 L 550.519531 210.042969 L 551.324219 210.507812 L 551.324219 209.578125 L 635.25 161.117188 L 719.175781 209.578125 L 719.175781 210.507812 L 719.980469 210.042969 L 720.789062 210.507812 L 720.789062 209.578125 L 804.714844 161.117188 L 888.636719 209.578125 L 888.636719 210.507812 L 889.445312 210.042969 L 890.25 210.507812 L 890.25 209.578125 L 974.175781 161.117188 L 1058.101562 209.578125 L 1058.101562 210.507812 L 1058.90625 210.042969 L 1059.714844 210.507812 L 1059.714844 209.578125 L 1143.640625 161.117188 L 1227.5625 209.578125 L 1227.5625 210.507812 L 1228.371094 210.042969 L 1229.175781 210.507812 L 1229.175781 209.578125 L 1313.910156 160.648438 Z M 1311.488281 62.355469 L 1300.574219 68.660156 L 1228.371094 110.339844 L 1156.167969 68.660156 L 1145.253906 62.355469 L 1228.371094 14.359375 Z M 1142.027344 62.355469 L 1131.109375 68.660156 L 1058.90625 110.339844 L 986.707031 68.660156 L 975.789062 62.355469 L 1058.90625 14.359375 Z M 972.5625 62.355469 L 961.648438 68.660156 L 889.445312 110.339844 L 817.242188 68.660156 L 806.328125 62.355469 L 889.445312 14.359375 Z M 803.101562 62.355469 L 782.523438 74.234375 L 719.980469 110.339844 L 692.992188 94.757812 L 636.863281 62.355469 L 719.980469 14.359375 Z M 633.636719 62.355469 L 566.601562 101.054688 L 550.519531 110.339844 L 501.136719 81.832031 L 467.402344 62.355469 L 550.519531 14.359375 Z M 464.175781 62.355469 L 397.246094 100.992188 L 381.058594 110.339844 L 331.675781 81.832031 L 297.9375 62.355469 L 381.058594 14.359375 Z M 211.59375 14.359375 L 294.710938 62.355469 L 227.675781 101.054688 L 211.59375 110.339844 L 162.214844 81.832031 L 128.476562 62.355469 Z M 127.667969 159.71875 L 127.667969 63.753906 L 161.40625 83.230469 L 210.789062 111.738281 L 210.789062 207.714844 Z M 212.402344 111.738281 L 261.78125 83.230469 L 295.519531 63.753906 L 295.519531 159.71875 L 212.402344 207.714844 Z M 297.132812 159.71875 L 297.132812 63.753906 L 330.871094 83.230469 L 380.25 111.738281 L 380.25 207.714844 Z M 381.863281 111.738281 L 431.675781 82.980469 L 464.980469 63.753906 L 464.980469 159.71875 L 381.863281 207.714844 Z M 466.59375 159.71875 L 466.59375 63.753906 L 500.332031 83.230469 L 549.710938 111.738281 L 549.710938 207.714844 Z M 551.324219 111.738281 L 600.707031 83.230469 L 634.445312 63.753906 L 634.445312 159.71875 L 551.324219 207.714844 Z M 636.058594 159.71875 L 636.058594 63.753906 L 669.792969 83.230469 L 719.175781 111.738281 L 719.175781 207.714844 Z M 720.789062 111.738281 L 800.425781 65.765625 L 803.90625 63.753906 L 803.90625 159.71875 L 720.789062 207.714844 Z M 805.519531 159.71875 L 805.519531 63.753906 L 809.003906 65.765625 L 888.636719 111.738281 L 888.636719 207.714844 Z M 890.25 111.738281 L 969.886719 65.765625 L 973.367188 63.753906 L 973.367188 159.71875 L 890.25 207.714844 Z M 974.984375 159.71875 L 974.984375 63.753906 L 978.464844 65.765625 L 1058.101562 111.738281 L 1058.101562 207.714844 Z M 1059.714844 111.738281 L 1139.351562 65.765625 L 1142.832031 63.753906 L 1142.832031 159.71875 L 1059.714844 207.714844 Z M 1144.445312 159.71875 L 1144.445312 63.753906 L 1147.929688 65.765625 L 1227.5625 111.738281 L 1227.5625 207.714844 Z M 1312.292969 159.71875 L 1229.175781 207.714844 L 1229.175781 111.738281 L 1308.8125 65.765625 L 1312.292969 63.753906 Z M 1312.292969 159.71875 " fill-opacity="1" fill-rule="nonzero"/></g><g clip-path="url(#621364dd38)"><path fill="#2c883c" d="M 1314.714844 649.398438 L 1313.910156 648.933594 L 1313.910156 648 L 1313.101562 648.46875 L 1228.371094 599.539062 L 1143.640625 648.46875 L 1058.90625 599.539062 L 974.175781 648.46875 L 889.445312 599.539062 L 804.714844 648.46875 L 719.980469 599.539062 L 635.964844 648.054688 L 635.25 648.46875 L 634.539062 648.054688 L 550.519531 599.539062 L 466.5 648.058594 L 465.789062 648.46875 L 465.132812 648.089844 L 381.058594 599.539062 L 297.039062 648.054688 L 296.324219 648.46875 L 295.613281 648.058594 L 211.59375 599.539062 L 126.863281 648.46875 L 126.054688 648 L 126.054688 648.933594 L 125.25 649.398438 L 126.054688 649.863281 L 126.054688 747.691406 L 210.789062 796.621094 L 210.789062 797.550781 L 211.59375 797.085938 L 212.402344 797.550781 L 212.402344 796.621094 L 296.324219 748.15625 L 380.25 796.621094 L 380.25 797.550781 L 381.058594 797.085938 L 381.863281 797.550781 L 381.863281 796.621094 L 465.785156 748.15625 L 549.710938 796.621094 L 549.710938 797.550781 L 550.519531 797.085938 L 551.324219 797.550781 L 551.324219 796.621094 L 635.25 748.15625 L 719.175781 796.621094 L 719.175781 797.550781 L 719.980469 797.085938 L 720.789062 797.550781 L 720.789062 796.621094 L 804.710938 748.15625 L 888.636719 796.621094 L 888.636719 797.550781 L 889.445312 797.085938 L 890.253906 797.550781 L 890.253906 796.621094 L 974.175781 748.15625 L 1058.101562 796.621094 L 1058.101562 797.550781 L 1058.90625 797.085938 L 1059.714844 797.550781 L 1059.714844 796.621094 L 1143.636719 748.15625 L 1227.5625 796.621094 L 1227.5625 797.550781 L 1228.371094 797.085938 L 1229.175781 797.550781 L 1229.175781 796.621094 L 1313.503906 747.925781 L 1313.910156 747.691406 L 1313.910156 649.863281 Z M 1311.488281 649.398438 L 1228.371094 697.378906 L 1145.253906 649.398438 L 1228.371094 601.402344 Z M 1142.027344 649.398438 L 1058.90625 697.378906 L 975.789062 649.398438 L 1058.90625 601.402344 Z M 972.5625 649.398438 L 889.445312 697.378906 L 806.328125 649.398438 L 889.445312 601.402344 Z M 803.101562 649.398438 L 719.980469 697.378906 L 636.863281 649.398438 L 719.980469 601.402344 Z M 633.636719 649.398438 L 550.519531 697.378906 L 467.402344 649.398438 L 550.519531 601.402344 Z M 464.175781 649.398438 L 381.054688 697.378906 L 297.9375 649.398438 L 381.058594 601.402344 Z M 211.59375 601.402344 L 294.710938 649.398438 L 211.59375 697.378906 L 128.476562 649.398438 Z M 127.667969 746.757812 L 127.667969 650.796875 L 165.210938 672.46875 L 210.789062 698.777344 L 210.789062 794.757812 Z M 212.402344 698.777344 L 295.519531 650.796875 L 295.519531 746.757812 L 212.402344 794.757812 Z M 297.132812 746.757812 L 297.132812 650.796875 L 334.671875 672.46875 L 380.25 698.777344 L 380.25 794.757812 Z M 381.863281 698.777344 L 464.980469 650.796875 L 464.980469 746.757812 L 381.863281 794.757812 Z M 466.59375 746.757812 L 466.59375 650.796875 L 504.136719 672.46875 L 549.710938 698.777344 L 549.710938 794.757812 Z M 551.324219 698.777344 L 634.445312 650.796875 L 634.445312 746.757812 L 551.324219 794.757812 Z M 636.058594 746.757812 L 636.058594 650.796875 L 673.597656 672.46875 L 719.175781 698.777344 L 719.175781 794.757812 Z M 720.789062 698.777344 L 803.90625 650.796875 L 803.90625 746.757812 L 720.789062 794.757812 Z M 805.519531 746.757812 L 805.519531 650.796875 L 814.097656 655.746094 L 888.636719 698.777344 L 888.636719 794.757812 Z M 890.25 698.777344 L 973.367188 650.796875 L 973.367188 746.757812 L 890.25 794.757812 Z M 974.984375 746.757812 L 974.984375 650.796875 L 983.558594 655.746094 L 1058.101562 698.777344 L 1058.101562 794.757812 Z M 1059.714844 698.777344 L 1142.832031 650.796875 L 1142.832031 746.757812 L 1059.714844 794.757812 Z M 1144.445312 746.757812 L 1144.445312 650.796875 L 1153.023438 655.746094 L 1227.5625 698.777344 L 1227.5625 794.757812 Z M 1312.292969 746.757812 L 1229.175781 794.757812 L 1229.175781 698.777344 L 1312.292969 650.796875 Z M 1312.292969 746.757812 " fill-opacity="1" fill-rule="nonzero"/></g></svg>